<svg width="636" height="50" viewBox="0 0 636 50" fill="none" xmlns="http://www.w3.org/2000/svg">
<path d="M233.479 30.4597C291.107 33.926 349.161 32.1304 406.867 32.1304C470.245 32.1304 533.013 34.4479 596.035 41.7837C600.495 42.3029 604.955 42.8254 609.401 43.4545C612.299 43.8646 619.129 42.822 617.941 45.4965C616.05 49.75 578.476 47.1645 577.1 47.1673C462.468 47.3984 347.833 47.1673 233.2 47.1673C156.491 47.1673 79.6135 48.6423 2.91331 47.1673C-1.61834 47.0802 11.9543 46.4965 16.4651 46.0535C45.3761 43.214 74.0893 38.8599 103.066 36.5858C235.907 26.1604 370.635 32.1304 503.772 32.1304C545.077 32.1304 668.992 32.1304 627.687 32.1304C511.569 32.1304 395.45 32.1304 279.332 32.1304C239.574 32.1304 199.816 32.1304 160.058 32.1304C137.936 32.1304 204.302 32.1304 226.425 32.1304C353.279 32.1304 733.842 32.1304 606.988 32.1304C543.13 32.1304 479.791 21.9467 416.242 16.7222C363.997 12.427 311.821 10.1519 259.469 7.99714C242.145 7.28411 226.786 5.76718 210.088 2.05664" stroke="white" stroke-width="3" stroke-linecap="round"/>
</svg>
