<svg width="309" height="152" viewBox="0 0 309 152" fill="none" xmlns="http://www.w3.org/2000/svg">
<path d="M307.311 76C307.311 34.5923 273.719 1.00005 232.311 1.00004L138.137 1.00004C96.7289 1.00004 63.1367 34.5923 63.1367 76C63.1367 117.408 96.7289 151 138.137 151L232.311 151C273.719 151 307.311 117.408 307.311 76Z" stroke="#577DE0" stroke-width="2"/>
<path d="M245.175 76C245.175 34.5923 211.582 1.00005 170.175 1.00004L75.9999 1.00004C34.5922 1.00004 0.999948 34.5923 0.999946 76C0.999944 117.408 34.5922 151 75.9999 151L170.175 151C211.582 151 245.175 117.408 245.175 76Z" stroke="#577DE0" stroke-width="2"/>
</svg>
